<svg width="25" height="26" viewBox="0 0 25 26" fill="none" xmlns="http://www.w3.org/2000/svg">
<path d="M15.2535 13L24.6006 3.65245C24.8577 3.39513 24.9996 3.05184 25 2.68578C25 2.31952 24.8581 1.97582 24.6006 1.71891L23.7815 0.900011C23.524 0.642084 23.1807 0.500824 22.8142 0.500824C22.4484 0.500824 22.1051 0.642084 21.8476 0.900011L12.5004 10.247L3.15285 0.900011C2.89573 0.642084 2.55224 0.500824 2.18598 0.500824C1.82012 0.500824 1.47663 0.642084 1.21951 0.900011L0.4 1.71891C-0.133333 2.25225 -0.133333 3.11973 0.4 3.65245L9.74736 13L0.4 22.3472C0.142683 22.6049 0.00101626 22.9482 0.00101626 23.3142C0.00101626 23.6803 0.142683 24.0236 0.4 24.2811L1.21931 25.1C1.47642 25.3577 1.82012 25.4992 2.18577 25.4992C2.55203 25.4992 2.89553 25.3577 3.15264 25.1L12.5002 15.7529L21.8474 25.1C22.1049 25.3577 22.4482 25.4992 22.814 25.4992H22.8144C23.1805 25.4992 23.5238 25.3577 23.7813 25.1L24.6004 24.2811C24.8575 24.0238 24.9994 23.6803 24.9994 23.3142C24.9994 22.9482 24.8575 22.6049 24.6004 22.3474L15.2535 13Z" fill="black"/>
</svg>
