<svg width="97" height="33" viewBox="0 0 97 33" fill="none" xmlns="http://www.w3.org/2000/svg">
<path d="M12.2787 4.56271H10.1395V5.6323H12.2787V4.56271Z" fill="black"/>
<path d="M12.2787 6.70187H10.1395V7.77146H12.2787V6.70187Z" fill="black"/>
<path d="M12.2787 8.84103H10.1395V9.91062H12.2787V8.84103Z" fill="black"/>
<path d="M19.7658 5.0975H18.6962C18.6959 5.38107 18.5831 5.65293 18.3826 5.85344C18.1821 6.05396 17.9102 6.16675 17.6266 6.16709V7.23667C18.1938 7.23603 18.7375 7.01045 19.1386 6.60942C19.5396 6.20839 19.7652 5.66465 19.7658 5.0975Z" fill="black"/>
<path d="M22.4398 7.77146V6.70188C22.1563 6.70154 21.8844 6.58875 21.6839 6.38823C21.4834 6.18772 21.3706 5.91586 21.3702 5.63229H20.3007C20.3013 6.19944 20.5269 6.74318 20.9279 7.14421C21.3289 7.54524 21.8727 7.77082 22.4398 7.77146Z" fill="black"/>
<path d="M28.0545 31.0505C27.1517 31.2146 26.2308 31.2557 25.3169 31.1728L16.0182 30.3274C15.8687 30.3138 15.7303 30.2431 15.6316 30.13C15.5329 30.0169 15.4816 29.8701 15.4884 29.7202C15.4952 29.5703 15.5595 29.4287 15.6679 29.325C15.7764 29.2212 15.9207 29.1633 16.0707 29.1632H23.2419C23.5965 29.1626 23.9365 29.0214 24.1871 28.7705C24.4378 28.5196 24.5787 28.1796 24.5789 27.8249V27.8124C24.5783 27.5314 24.4871 27.2581 24.3189 27.033L23.0944 25.401C23.0168 25.2972 22.9748 25.1711 22.9745 25.0415V24.9497C22.9745 24.8311 23.0097 24.7152 23.0756 24.6166C23.1414 24.518 23.2351 24.4411 23.3447 24.3957C23.4542 24.3503 23.5748 24.3385 23.6911 24.3616C23.8075 24.3847 23.9143 24.4418 23.9982 24.5257L26.3399 26.8674C26.3896 26.917 26.4485 26.9564 26.5134 26.9833C26.5783 27.0102 26.6478 27.024 26.7181 27.024H32.6008V25.9544H26.9395L24.7546 23.7693C24.6996 23.7145 24.6409 23.6634 24.5789 23.6166V11.515C24.5789 11.3732 24.5225 11.2372 24.4223 11.1369C24.322 11.0366 24.1859 10.9802 24.0441 10.9802H23.5093V9.37586H24.3115C24.8079 9.37586 25.284 9.17865 25.635 8.82763C25.9861 8.4766 26.1833 8.00051 26.1833 7.50409C26.1833 7.00766 25.9861 6.53157 25.635 6.18054C25.284 5.82952 24.8079 5.63231 24.3115 5.63231H24.2562C24.524 5.31148 24.6616 4.90191 24.6421 4.48449C24.6225 4.06708 24.4471 3.67218 24.1505 3.37783C23.8539 3.08347 23.4576 2.91105 23.0401 2.89464C22.6225 2.87823 22.214 3.01902 21.8952 3.28919C21.8446 2.75947 21.5984 2.26763 21.2047 1.9097C20.8109 1.55176 20.2979 1.35343 19.7658 1.35343C19.2336 1.35343 18.7206 1.55176 18.3269 1.9097C17.9331 2.26763 17.6869 2.75947 17.6363 3.28919C17.3175 3.01902 16.909 2.87823 16.4914 2.89464C16.0739 2.91105 15.6777 3.08347 15.3811 3.37783C15.0845 3.67218 14.909 4.06708 14.8895 4.48449C14.8699 4.90191 15.0076 5.31148 15.2753 5.63231H15.22C14.9425 5.63206 14.6684 5.69389 14.4178 5.81327V3.49315C14.4178 2.64213 14.0798 1.82597 13.478 1.22422C12.8763 0.622457 12.0601 0.284393 11.2091 0.284393C10.3581 0.284393 9.54191 0.622457 8.94016 1.22422C8.3384 1.82597 8.00033 2.64213 8.00033 3.49315V10.9802H7.46554C7.32371 10.9802 7.18768 11.0366 7.08739 11.1369C6.98709 11.2372 6.93075 11.3732 6.93075 11.515V13.8666L4.05898 16.3282H0.513245V17.3977H4.25679C4.38444 17.3977 4.50788 17.3521 4.6048 17.269L7.70446 14.6121C8.02312 14.3392 8.42885 14.1891 8.84845 14.189C8.89225 14.189 8.93507 14.202 8.97149 14.2263C9.00791 14.2507 9.03629 14.2853 9.05305 14.3257C9.06981 14.3662 9.07419 14.4107 9.06564 14.4537C9.05709 14.4967 9.03599 14.5361 9.00501 14.5671L7.08738 16.4848C7.01258 16.5596 6.96164 16.6549 6.94101 16.7586C6.92037 16.8624 6.93096 16.9699 6.97144 17.0676C7.01192 17.1653 7.08047 17.2489 7.16842 17.3076C7.25637 17.3664 7.35977 17.3977 7.46554 17.3977H13.0809C13.1518 17.3977 13.2198 17.4259 13.2699 17.4761C13.3201 17.5262 13.3483 17.5942 13.3483 17.6651C13.3483 17.7361 13.3201 17.8041 13.2699 17.8542C13.2198 17.9044 13.1518 17.9325 13.0809 17.9325H9.06992C8.92808 17.9325 8.79206 17.9889 8.69176 18.0892C8.59147 18.1895 8.53513 18.3255 8.53513 18.4673C8.53513 18.6092 8.59147 18.7452 8.69176 18.8455C8.79206 18.9458 8.92808 19.0021 9.06992 19.0021H14.6852C14.7562 19.0021 14.8242 19.0303 14.8743 19.0804C14.9245 19.1306 14.9526 19.1986 14.9526 19.2695C14.9526 19.3404 14.9245 19.4084 14.8743 19.4586C14.8242 19.5087 14.7562 19.5369 14.6852 19.5369H9.06992C8.92808 19.5369 8.79206 19.5933 8.69176 19.6935C8.59147 19.7938 8.53513 19.9299 8.53513 20.0717C8.53513 20.2135 8.59147 20.3496 8.69176 20.4499C8.79206 20.5501 8.92808 20.6065 9.06992 20.6065H13.6157C13.6866 20.6065 13.7546 20.6347 13.8047 20.6848C13.8549 20.735 13.883 20.803 13.883 20.8739C13.883 20.9448 13.8549 21.0128 13.8047 21.063C13.7546 21.1131 13.6866 21.1413 13.6157 21.1413H9.06992C8.92808 21.1413 8.79206 21.1976 8.69176 21.2979C8.59147 21.3982 8.53513 21.5342 8.53513 21.6761C8.53513 21.8179 8.59147 21.9539 8.69176 22.0542C8.79206 22.1545 8.92808 22.2109 9.06992 22.2109H11.7105C11.7187 22.2113 11.7264 22.2147 11.7323 22.2205C11.7381 22.2263 11.7417 22.234 11.7422 22.2422C11.7427 22.2504 11.7401 22.2585 11.735 22.265C11.7299 22.2714 11.7226 22.2758 11.7145 22.2772L8.04218 22.7362L4.40386 21.6967C4.35603 21.683 4.30653 21.6761 4.25679 21.6761H0.513245V22.7457H4.18192L6.93075 23.5311V28.6284H6.93202C6.93151 28.6986 6.94496 28.7683 6.97158 28.8333C6.9982 28.8984 7.03745 28.9575 7.08708 29.0072C7.13671 29.0569 7.19571 29.0963 7.26068 29.1231C7.32564 29.1499 7.39528 29.1635 7.46554 29.1632H14.5248C14.4348 29.4014 14.4011 29.6573 14.4263 29.9107C14.4515 30.1642 14.535 30.4084 14.6702 30.6242C14.8055 30.8401 14.9887 31.0217 15.2058 31.155C15.4228 31.2883 15.6677 31.3696 15.9214 31.3926L25.22 32.2382C25.5584 32.2691 25.8973 32.2845 26.2367 32.2844C26.9105 32.2844 27.5829 32.2238 28.2458 32.1033L32.6964 31.294L32.5051 30.2417L28.0545 31.0505ZM13.3483 8.84107C13.3484 8.69928 13.4048 8.56335 13.5051 8.46309C13.6053 8.36283 13.7413 8.30643 13.883 8.30627H14.9526C15.5198 8.30691 16.0635 8.53249 16.4645 8.93353C16.8656 9.33456 17.0912 9.87829 17.0918 10.4454C17.0916 10.5872 17.0352 10.7232 16.935 10.8234C16.8347 10.9237 16.6988 10.9801 16.557 10.9802H15.4874C14.9203 10.9796 14.3765 10.754 13.9755 10.353C13.5745 9.95195 13.3489 9.40821 13.3483 8.84107ZM15.22 6.7019H16.557C16.6628 6.7019 16.7662 6.67054 16.8541 6.61178C16.9421 6.55301 17.0106 6.46949 17.0511 6.37176C17.0916 6.27404 17.1022 6.16651 17.0815 6.06277C17.0609 5.95903 17.01 5.86373 16.9352 5.78894L16.133 4.98675C16.0773 4.93107 16.0331 4.86496 16.003 4.79221C15.9729 4.71946 15.9573 4.64148 15.9573 4.56273C15.9573 4.48398 15.9729 4.406 16.003 4.33325C16.0331 4.2605 16.0773 4.19439 16.133 4.13871C16.1887 4.08302 16.2548 4.03885 16.3275 4.00872C16.4003 3.97858 16.4783 3.96307 16.557 3.96307C16.6358 3.96307 16.7137 3.97858 16.7865 4.00872C16.8592 4.03885 16.9253 4.08302 16.981 4.13871L17.7832 4.94089C17.858 5.01569 17.9533 5.06663 18.057 5.08726C18.1608 5.1079 18.2683 5.09731 18.366 5.05683C18.4638 5.01635 18.5473 4.9478 18.6061 4.85985C18.6648 4.7719 18.6962 4.6685 18.6962 4.56273V3.49315C18.6962 3.20947 18.8089 2.93742 19.0094 2.73684C19.21 2.53625 19.4821 2.42356 19.7658 2.42356C20.0494 2.42356 20.3215 2.53625 20.5221 2.73684C20.7227 2.93742 20.8353 3.20947 20.8353 3.49315V4.56273C20.8353 4.6685 20.8667 4.7719 20.9255 4.85985C20.9842 4.9478 21.0678 5.01635 21.1655 5.05683C21.2632 5.09731 21.3707 5.1079 21.4745 5.08726C21.5782 5.06663 21.6735 5.01569 21.7483 4.94089L22.5505 4.13871C22.6062 4.08302 22.6723 4.03885 22.745 4.00872C22.8178 3.97858 22.8958 3.96307 22.9745 3.96307C23.0533 3.96307 23.1312 3.97858 23.204 4.00872C23.2767 4.03885 23.3428 4.08302 23.3985 4.13871C23.4542 4.19439 23.4984 4.2605 23.5285 4.33325C23.5587 4.406 23.5742 4.48398 23.5742 4.56273C23.5742 4.64148 23.5587 4.71946 23.5285 4.79221C23.4984 4.86496 23.4542 4.93107 23.3985 4.98675L22.5963 5.78894C22.5215 5.86373 22.4706 5.95903 22.45 6.06277C22.4293 6.16651 22.4399 6.27404 22.4804 6.37176C22.5209 6.46949 22.5894 6.55301 22.6774 6.61178C22.7653 6.67054 22.8687 6.7019 22.9745 6.7019H24.3115C24.5242 6.7019 24.7283 6.78641 24.8787 6.93685C25.0292 7.08729 25.1137 7.29133 25.1137 7.50409C25.1137 7.71684 25.0292 7.92088 24.8787 8.07132C24.7283 8.22176 24.5242 8.30627 24.3115 8.30627H22.9745C22.8327 8.30627 22.6966 8.36262 22.5964 8.46291C22.4961 8.5632 22.4397 8.69923 22.4397 8.84107V9.12591C21.8157 8.56547 20.9967 8.2723 20.1588 8.30942C19.3208 8.34655 18.531 8.71102 17.959 9.32445C17.7298 8.71191 17.3192 8.18386 16.782 7.81081C16.2448 7.43776 15.6066 7.23747 14.9526 7.23669H14.4646C14.52 7.08049 14.6223 6.94524 14.7575 6.84949C14.8928 6.75374 15.0543 6.70218 15.22 6.7019ZM22.372 10.9802H18.2291C18.3475 10.5209 18.6153 10.1139 18.9903 9.82331C19.3652 9.53273 19.8262 9.37505 20.3006 9.37505C20.7749 9.37505 21.2359 9.53273 21.6108 9.82331C21.9858 10.1139 22.2536 10.5209 22.372 10.9802ZM9.06992 3.49315C9.06992 2.9258 9.29529 2.3817 9.69647 1.98053C10.0976 1.57935 10.6417 1.35398 11.2091 1.35398C11.7764 1.35398 12.3205 1.57935 12.7217 1.98053C13.1229 2.3817 13.3483 2.9258 13.3483 3.49315V7.32867C13.0357 7.43958 12.7651 7.64448 12.5736 7.91525C12.3821 8.18603 12.2791 8.50939 12.2787 8.84103C12.2781 9.63088 12.5701 10.393 13.0983 10.9802H9.06992V3.49315ZM10.1395 12.0498H11.2091V16.3282H10.1395V12.0498ZM8.84845 13.1194C8.56074 13.1195 8.27474 13.1636 8.00033 13.25V12.0498H9.06992V13.1398C8.99682 13.1267 8.92272 13.1198 8.84845 13.1194ZM9.06992 16.0149V16.3282H8.7566L9.06992 16.0149ZM10.1395 23.552L11.2091 23.4183V27.3372L10.1395 26.2676V23.552ZM8.06665 23.8111L9.06992 23.6857V26.2677L8.00033 27.3373V23.8152C8.0225 23.8152 8.04465 23.8138 8.06665 23.8111ZM8.7566 28.0936L9.60471 27.2455L10.4528 28.0936H8.7566ZM12.2787 23.1879C12.4415 23.09 12.5763 22.9516 12.67 22.7863C12.7637 22.6209 12.8131 22.4342 12.8135 22.2442C12.8135 22.233 12.8135 22.2219 12.8129 22.2107H13.6157C13.8157 22.2106 14.0131 22.1657 14.1935 22.0792C14.3738 21.9927 14.5325 21.8668 14.6578 21.7109C14.7831 21.5549 14.8718 21.3729 14.9174 21.1781C14.963 20.9834 14.9643 20.7809 14.9213 20.5855C15.2502 20.5265 15.545 20.3466 15.7478 20.0811C15.9506 19.8156 16.0467 19.4838 16.0171 19.151C15.9875 18.8182 15.8343 18.5086 15.5878 18.2831C15.3413 18.0576 15.0193 17.9325 14.6852 17.9325H14.3911C14.4306 17.7383 14.4264 17.5377 14.3789 17.3452C14.3313 17.1528 14.2416 16.9733 14.1162 16.8198C13.9909 16.6663 13.8329 16.5425 13.6539 16.4575C13.4748 16.3725 13.2791 16.3283 13.0809 16.3282H12.2787V12.0498H23.5093V23.2821C23.0784 23.2994 22.6708 23.4825 22.3718 23.7933C22.0728 24.1041 21.9055 24.5185 21.9049 24.9497V25.0415C21.9057 25.4026 22.0229 25.7538 22.2392 26.0431L23.4636 27.6748C23.4933 27.7146 23.5094 27.7628 23.5095 27.8124V27.8249C23.5096 27.896 23.4815 27.9642 23.4313 28.0146C23.3811 28.065 23.313 28.0934 23.2419 28.0936H12.2787V23.1879Z" fill="black"/>
<path d="M44.9342 12.2844V1.62033H47.9445C48.8722 1.62033 49.6925 1.82541 50.4054 2.23557C51.1183 2.64572 51.6676 3.22922 52.0534 3.98605C52.444 4.74289 52.6417 5.61203 52.6466 6.59348V7.27463C52.6466 8.28049 52.4513 9.16183 52.0607 9.91867C51.6749 10.6755 51.1207 11.2566 50.3981 11.6618C49.6803 12.0671 48.8429 12.2746 47.8859 12.2844H44.9342ZM46.3405 2.77756V11.1345H47.82C48.9039 11.1345 49.7462 10.7976 50.3468 10.1237C50.9523 9.44992 51.255 8.49045 51.255 7.24533V6.62277C51.255 5.41183 50.9694 4.47189 50.3981 3.80295C49.8317 3.12912 49.026 2.78732 47.9811 2.77756H46.3405Z" fill="black"/>
<path d="M57.8541 12.4309C56.7799 12.4309 55.9059 12.0793 55.2321 11.3762C54.5582 10.6682 54.2213 9.72336 54.2213 8.54172V8.29269C54.2213 7.50656 54.3703 6.80588 54.6681 6.19064C54.9708 5.57053 55.3908 5.08713 55.9279 4.74045C56.4699 4.38889 57.0558 4.2131 57.6857 4.2131C58.716 4.2131 59.5167 4.55246 60.088 5.23117C60.6593 5.90988 60.945 6.88156 60.945 8.14621V8.71017H55.5763C55.5958 9.49142 55.8229 10.1237 56.2575 10.6071C56.6969 11.0857 57.2536 11.3249 57.9274 11.3249C58.4059 11.3249 58.8112 11.2273 59.1432 11.032C59.4752 10.8366 59.7658 10.5779 60.0148 10.2556L60.8424 10.9001C60.1784 11.9206 59.1823 12.4309 57.8541 12.4309ZM57.6857 5.32639C57.1388 5.32639 56.6798 5.52658 56.3087 5.92697C55.9376 6.32248 55.7081 6.87912 55.6203 7.59689H59.59V7.49435C59.5509 6.80588 59.3654 6.27365 59.0333 5.89767C58.7013 5.51682 58.2521 5.32639 57.6857 5.32639Z" fill="black"/>
<path d="M63.9918 12.2844H62.6369V1.03439H63.9918V12.2844Z" fill="black"/>
<path d="M67.6393 12.2844H66.2843V4.35959H67.6393V12.2844ZM66.1745 2.25754C66.1745 2.03781 66.2404 1.85226 66.3722 1.7009C66.5089 1.54953 66.7091 1.47385 66.9728 1.47385C67.2365 1.47385 67.4367 1.54953 67.5734 1.7009C67.7101 1.85226 67.7785 2.03781 67.7785 2.25754C67.7785 2.47726 67.7101 2.66037 67.5734 2.80685C67.4367 2.95334 67.2365 3.02658 66.9728 3.02658C66.7091 3.02658 66.5089 2.95334 66.3722 2.80685C66.2404 2.66037 66.1745 2.47726 66.1745 2.25754Z" fill="black"/>
<path d="M72.4293 10.446L74.3922 4.35959H75.7765L72.9347 12.2844H71.902L69.0309 4.35959H70.4152L72.4293 10.446Z" fill="black"/>
<path d="M80.2663 12.4309C79.192 12.4309 78.318 12.0793 77.6442 11.3762C76.9704 10.6682 76.6334 9.72336 76.6334 8.54172V8.29269C76.6334 7.50656 76.7824 6.80588 77.0802 6.19064C77.3829 5.57053 77.8029 5.08713 78.34 4.74045C78.882 4.38889 79.4679 4.2131 80.0978 4.2131C81.1281 4.2131 81.9288 4.55246 82.5001 5.23117C83.0714 5.90988 83.3571 6.88156 83.3571 8.14621V8.71017H77.9884C78.0079 9.49142 78.235 10.1237 78.6696 10.6071C79.109 11.0857 79.6657 11.3249 80.3395 11.3249C80.818 11.3249 81.2233 11.2273 81.5553 11.032C81.8873 10.8366 82.1779 10.5779 82.4269 10.2556L83.2545 10.9001C82.5905 11.9206 81.5944 12.4309 80.2663 12.4309ZM80.0978 5.32639C79.5509 5.32639 79.0919 5.52658 78.7208 5.92697C78.3497 6.32248 78.1203 6.87912 78.0324 7.59689H82.0021V7.49435C81.963 6.80588 81.7775 6.27365 81.4454 5.89767C81.1134 5.51682 80.6642 5.32639 80.0978 5.32639Z" fill="black"/>
<path d="M88.7623 5.57541C88.5573 5.54123 88.3351 5.52414 88.0958 5.52414C87.2072 5.52414 86.6041 5.90256 86.2868 6.65939V12.2844H84.9318V4.35959H86.2501L86.2721 5.27512C86.7164 4.56711 87.3463 4.2131 88.1618 4.2131C88.4254 4.2131 88.6256 4.24728 88.7623 4.31564V5.57541Z" fill="black"/>
<path d="M92.7394 10.2995L94.5851 4.35959H96.0353L92.8493 13.5075C92.3561 14.8259 91.5724 15.4851 90.4982 15.4851L90.2418 15.4631L89.7365 15.3679V14.2693L90.1027 14.2986C90.5617 14.2986 90.9181 14.2058 91.172 14.0202C91.4308 13.8347 91.6432 13.4953 91.8092 13.0022L92.1095 12.1965L89.2824 4.35959H90.7619L92.7394 10.2995Z" fill="black"/>
<path d="M50.8156 25.5749H46.3405V30.2844H44.9342V19.6203H51.5407V20.7776H46.3405V24.425H50.8156V25.5749Z" fill="black"/>
<path d="M52.4928 26.2487C52.4928 25.4724 52.6442 24.7741 52.9469 24.154C53.2545 23.5339 53.6793 23.0554 54.2213 22.7185C54.7682 22.3816 55.3908 22.2131 56.089 22.2131C57.1681 22.2131 58.0397 22.5866 58.7038 23.3337C59.3727 24.0808 59.7072 25.0744 59.7072 26.3147V26.4099C59.7072 27.1814 59.5582 27.8747 59.2604 28.49C58.9674 29.1003 58.5451 29.5764 57.9933 29.9182C57.4464 30.26 56.8165 30.4309 56.1037 30.4309C55.0294 30.4309 54.1579 30.0573 53.4889 29.3103C52.8248 28.5632 52.4928 27.5744 52.4928 26.344V26.2487ZM53.8551 26.4099C53.8551 27.2888 54.0578 27.9944 54.463 28.5266C54.8732 29.0588 55.4201 29.3249 56.1037 29.3249C56.7921 29.3249 57.339 29.0564 57.7443 28.5193C58.1496 27.9773 58.3522 27.2204 58.3522 26.2487C58.3522 25.3796 58.1447 24.6765 57.7296 24.1394C57.3195 23.5974 56.7726 23.3264 56.089 23.3264C55.4201 23.3264 54.8805 23.5925 54.4704 24.1247C54.0602 24.657 53.8551 25.4187 53.8551 26.4099Z" fill="black"/>
<path d="M61.0475 26.2487C61.0475 25.4724 61.1989 24.7741 61.5016 24.154C61.8092 23.5339 62.234 23.0554 62.776 22.7185C63.3229 22.3816 63.9454 22.2131 64.6437 22.2131C65.7228 22.2131 66.5944 22.5866 67.2584 23.3337C67.9274 24.0808 68.2619 25.0744 68.2619 26.3147V26.4099C68.2619 27.1814 68.1129 27.8747 67.8151 28.49C67.5221 29.1003 67.0997 29.5764 66.548 29.9182C66.0011 30.26 65.3712 30.4309 64.6583 30.4309C63.5841 30.4309 62.7125 30.0573 62.0436 29.3103C61.3795 28.5632 61.0475 27.5744 61.0475 26.344V26.2487ZM62.4098 26.4099C62.4098 27.2888 62.6124 27.9944 63.0177 28.5266C63.4279 29.0588 63.9747 29.3249 64.6583 29.3249C65.3468 29.3249 65.8937 29.0564 66.299 28.5193C66.7042 27.9773 66.9069 27.2204 66.9069 26.2487C66.9069 25.3796 66.6994 24.6765 66.2843 24.1394C65.8742 23.5974 65.3273 23.3264 64.6437 23.3264C63.9747 23.3264 63.4352 23.5925 63.025 24.1247C62.6149 24.657 62.4098 25.4187 62.4098 26.4099Z" fill="black"/>
<path d="M69.6315 26.2561C69.6315 25.0403 69.9196 24.0637 70.4957 23.3264C71.0719 22.5842 71.8263 22.2131 72.7589 22.2131C73.6867 22.2131 74.4215 22.5305 74.9635 23.1653V19.0344H76.3185V30.2844H75.0734L75.0075 29.4348C74.4655 30.0988 73.7111 30.4309 72.7443 30.4309C71.8263 30.4309 71.0768 30.0549 70.4957 29.3029C69.9196 28.551 69.6315 27.5695 69.6315 26.3586V26.2561ZM70.9865 26.4099C70.9865 27.3083 71.172 28.0114 71.5431 28.5193C71.9142 29.0271 72.4269 29.281 73.0812 29.281C73.9406 29.281 74.568 28.8952 74.9635 28.1237V24.4836C74.5582 23.7365 73.9357 23.363 73.0958 23.363C72.4318 23.363 71.9142 23.6194 71.5431 24.132C71.172 24.6447 70.9865 25.404 70.9865 26.4099Z" fill="black"/>
</svg>
