<svg width="24" height="25" viewBox="0 0 24 25" fill="none" xmlns="http://www.w3.org/2000/svg">
<g filter="url(#filter0_d_266_123)">
<path d="M19.6377 8.87724L12.8455 2.08857L12.3903 1.6333C12.2865 1.53025 12.1463 1.47241 12 1.47241C11.8538 1.47241 11.7135 1.53025 11.6098 1.6333L4.36234 8.87724C4.25605 8.98312 4.17204 9.10922 4.11528 9.2481C4.05853 9.38698 4.03016 9.53582 4.03187 9.68584C4.0389 10.3046 4.55394 10.7985 5.17269 10.7985H5.91976V16.5237H18.0803V10.7985H18.8432C19.1438 10.7985 19.4268 10.6808 19.6395 10.4681C19.7442 10.3637 19.8272 10.2395 19.8836 10.1028C19.94 9.96616 19.9688 9.81964 19.9682 9.67177C19.9682 9.37294 19.8504 9.08994 19.6377 8.87724V8.87724ZM12.9844 15.2581H11.0157V11.6722H12.9844V15.2581ZM16.8147 9.53291V15.2581H14.1094V11.2503C14.1094 10.8618 13.7948 10.5472 13.4063 10.5472H10.5938C10.2053 10.5472 9.89066 10.8618 9.89066 11.2503V15.2581H7.18539V9.53291H5.49789L12.0018 3.03427L12.4078 3.44033L18.5039 9.53291H16.8147Z" fill="#8C8C8C"/>
</g>
<defs>
<filter id="filter0_d_266_123" x="-1" y="0" width="26" height="26" filterUnits="userSpaceOnUse" color-interpolation-filters="sRGB">
<feFlood flood-opacity="0" result="BackgroundImageFix"/>
<feColorMatrix in="SourceAlpha" type="matrix" values="0 0 0 0 0 0 0 0 0 0 0 0 0 0 0 0 0 0 127 0" result="hardAlpha"/>
<feOffset dy="4"/>
<feGaussianBlur stdDeviation="2"/>
<feComposite in2="hardAlpha" operator="out"/>
<feColorMatrix type="matrix" values="0 0 0 0 0 0 0 0 0 0 0 0 0 0 0 0 0 0 0.25 0"/>
<feBlend mode="normal" in2="BackgroundImageFix" result="effect1_dropShadow_266_123"/>
<feBlend mode="normal" in="SourceGraphic" in2="effect1_dropShadow_266_123" result="shape"/>
</filter>
</defs>
</svg>
